# 3ds Max Wavefront OBJ Exporter v0.97b - (c)2007 guruware
# File Created: 04.07.2014 11:33:05

mtllib Agile_01_HeadlightsGlass_HD.mtl

#
# object Agile_01_HeadlightsGlass_HD001
#

v  -48.4687 209.7465 59.8355
v  -48.4687 210.7007 54.1623
v  -57.3176 207.0803 54.1627
v  -57.3176 206.1231 59.9718
v  -57.3127 204.3866 65.7944
v  -48.4662 207.9877 65.6049
v  -57.3169 202.8933 68.8075
v  -48.4976 206.5072 68.5863
v  -36.4165 212.5654 61.6942
v  -35.0717 213.9193 57.6260
v  -39.6197 212.4098 59.6992
v  -38.4572 210.3410 66.3895
v  -37.2659 211.4748 64.3245
v  -39.8835 210.6494 65.1599
v  -67.8929 200.6162 54.2552
v  -68.0052 199.4282 60.2314
v  -68.0040 197.6302 66.1640
v  -39.6927 209.5362 67.5218
v  -39.6197 213.3639 54.1620
v  -34.0968 214.7664 54.3072
v  -41.1796 208.8044 68.1909
v  -43.1522 208.1077 68.4509
v  -67.9298 196.4457 69.1207
v  -78.1418 -206.4492 66.5982
v  -78.6902 -201.8402 81.7235
v  -79.4161 -200.7676 77.7070
v  -79.9628 -201.0410 66.4666
v  -68.3373 -212.5923 87.9897
v  -73.1494 -209.8472 87.9881
v  -74.2480 -211.6218 66.7348
v  -68.8991 -214.7666 66.7342
v  -62.6373 -214.4229 87.9929
v  -62.6342 -216.6813 66.7339
v  -41.0196 -218.1743 66.7152
v  -49.7996 -215.4811 87.9491
v  -49.3833 -215.5310 87.7464
v  -76.5455 -205.7717 87.3711
v  -75.3653 -207.1633 87.9233
v  78.1425 -206.4528 66.5982
v  79.9635 -201.0445 66.4666
v  79.4169 -200.7711 77.7070
v  78.6910 -201.8438 81.7235
v  68.3381 -212.5958 87.9897
v  68.8999 -214.7701 66.7342
v  74.2487 -211.6254 66.7348
v  73.1501 -209.8507 87.9881
v  62.6381 -214.4264 87.9929
v  62.6350 -216.6848 66.7339
v  49.8003 -215.4847 87.9491
v  41.0203 -218.1778 66.7152
v  49.3840 -215.5345 87.7464
v  76.5462 -205.7753 87.3712
v  75.3661 -207.1669 87.9233
v  48.4687 209.7465 59.8355
v  57.3176 206.1231 59.9718
v  57.3176 207.0802 54.1627
v  48.4687 210.7007 54.1623
v  48.4662 207.9877 65.6049
v  57.3127 204.3865 65.7944
v  48.4976 206.5071 68.5863
v  57.3169 202.8933 68.8075
v  36.4165 212.5654 61.6942
v  39.6197 212.4097 59.6992
v  35.0717 213.9193 57.6260
v  38.4572 210.3410 66.3895
v  39.8835 210.6494 65.1599
v  37.2659 211.4748 64.3245
v  67.8929 200.6162 54.2552
v  68.0052 199.4281 60.2314
v  68.0040 197.6302 66.1640
v  39.6927 209.5361 67.5218
v  39.6197 213.3638 54.1620
v  34.0968 214.7664 54.3072
v  41.1796 208.8044 68.1909
v  43.1522 208.1077 68.4509
v  67.9298 196.4456 69.1207
# 76 vertices

vn -0.3226 0.9214 0.2168
vn -0.3273 0.9317 0.1574
vn -0.4422 0.8849 0.1464
vn -0.4409 0.8742 0.2035
vn -0.4235 0.8433 0.3309
vn -0.3042 0.8859 0.3503
vn -0.4207 0.8151 0.3982
vn -0.2973 0.8563 0.4223
vn -0.2098 0.9378 0.2766
vn -0.2287 0.9542 0.1931
vn -0.2512 0.9409 0.2270
vn -0.1686 0.8920 0.4193
vn -0.1811 0.9216 0.3432
vn -0.2235 0.9049 0.3623
vn -0.5199 0.8405 0.1522
vn -0.5156 0.8312 0.2081
vn -0.4950 0.8145 0.3027
vn -0.2278 0.8753 0.4266
vn -0.2652 0.9502 0.1637
vn -0.2433 0.9552 0.1683
vn -0.2460 0.8751 0.4168
vn -0.2497 0.8678 0.4296
vn -0.4817 0.8092 0.3363
vn -0.8787 -0.4713 0.0760
vn -0.9229 -0.3764 0.0812
vn -0.9349 -0.3478 0.0706
vn -0.9467 -0.3175 0.0538
vn -0.4028 -0.9096 0.1021
vn -0.6455 -0.7583 0.0910
vn -0.6620 -0.7431 0.0977
vn -0.4002 -0.9107 0.1021
vn -0.1943 -0.9753 0.1054
vn -0.1816 -0.9781 0.1013
vn -0.0685 -0.9929 0.0976
vn -0.0744 -0.9922 0.1002
vn -0.0721 -0.9928 0.0961
vn -0.8197 -0.5669 0.0815
vn -0.7721 -0.6305 0.0794
vn 0.8787 -0.4713 0.0760
vn 0.9467 -0.3175 0.0538
vn 0.9349 -0.3478 0.0706
vn 0.9229 -0.3764 0.0812
vn 0.4028 -0.9096 0.1021
vn 0.4002 -0.9107 0.1021
vn 0.6620 -0.7431 0.0977
vn 0.6455 -0.7583 0.0910
vn 0.1943 -0.9753 0.1054
vn 0.1816 -0.9781 0.1013
vn 0.0744 -0.9922 0.1002
vn 0.0685 -0.9929 0.0976
vn 0.0721 -0.9928 0.0961
vn 0.8197 -0.5669 0.0815
vn 0.7721 -0.6305 0.0794
vn 0.3226 0.9214 0.2168
vn 0.4409 0.8742 0.2035
vn 0.4422 0.8849 0.1464
vn 0.3273 0.9317 0.1574
vn 0.3042 0.8859 0.3503
vn 0.4235 0.8433 0.3309
vn 0.2973 0.8563 0.4223
vn 0.4207 0.8151 0.3982
vn 0.2098 0.9378 0.2766
vn 0.2512 0.9409 0.2270
vn 0.2287 0.9542 0.1931
vn 0.1686 0.8920 0.4193
vn 0.2235 0.9049 0.3623
vn 0.1811 0.9216 0.3432
vn 0.5199 0.8405 0.1522
vn 0.5156 0.8312 0.2081
vn 0.4950 0.8145 0.3027
vn 0.2278 0.8753 0.4266
vn 0.2652 0.9502 0.1637
vn 0.2433 0.9552 0.1683
vn 0.2460 0.8751 0.4168
vn 0.2497 0.8678 0.4296
vn 0.4817 0.8092 0.3363
# 76 vertex normals

vt 0.1290 0.2189 0.0000
vt 0.1291 0.2147 0.0000
vt 0.1362 0.2153 0.0000
vt 0.1360 0.2196 0.0000
vt 0.1361 0.2241 0.0000
vt 0.1291 0.2234 0.0000
vt 0.1363 0.2266 0.0000
vt 0.1293 0.2258 0.0000
vt 0.1198 0.2198 0.0000
vt 0.1188 0.2166 0.0000
vt 0.1222 0.2183 0.0000
vt 0.1215 0.2236 0.0000
vt 0.1205 0.2219 0.0000
vt 0.1225 0.2226 0.0000
vt 0.1451 0.2167 0.0000
vt 0.1451 0.2212 0.0000
vt 0.1452 0.2258 0.0000
vt 0.1225 0.2245 0.0000
vt 0.1223 0.2142 0.0000
vt 0.1181 0.2141 0.0000
vt 0.1236 0.2251 0.0000
vt 0.1252 0.2254 0.0000
vt 0.1452 0.2281 0.0000
vt 0.5337 0.5327 0.0000
vt 0.5475 0.6008 0.0000
vt 0.5541 0.5835 0.0000
vt 0.5574 0.5327 0.0000
vt 0.4821 0.6246 0.0000
vt 0.5052 0.6246 0.0000
vt 0.5068 0.5327 0.0000
vt 0.4810 0.5327 0.0000
vt 0.4573 0.6246 0.0000
vt 0.4537 0.5327 0.0000
vt 0.3659 0.5327 0.0000
vt 0.4025 0.6246 0.0000
vt 0.5273 0.6230 0.0000
vt 0.5196 0.6246 0.0000
vt 0.5540 0.5836 0.0000
vt 0.4820 0.6246 0.0000
vt 0.5051 0.6246 0.0000
vt 0.4571 0.6246 0.0000
vt 0.4024 0.6246 0.0000
vt 0.3658 0.5327 0.0000
vt 0.5272 0.6230 0.0000
vt 0.5195 0.6246 0.0000
vt 0.1355 0.2198 0.0000
vt 0.1302 0.2209 0.0000
vt 0.1303 0.2166 0.0000
vt 0.1356 0.2156 0.0000
vt 0.1355 0.2242 0.0000
vt 0.1302 0.2254 0.0000
vt 0.1357 0.2267 0.0000
vt 0.1304 0.2279 0.0000
vt 0.1431 0.2201 0.0000
vt 0.1410 0.2188 0.0000
vt 0.1439 0.2169 0.0000
vt 0.1419 0.2240 0.0000
vt 0.1409 0.2231 0.0000
vt 0.1426 0.2223 0.0000
vt 0.1245 0.2185 0.0000
vt 0.1244 0.2229 0.0000
vt 0.1244 0.2275 0.0000
vt 0.1412 0.2250 0.0000
vt 0.1411 0.2147 0.0000
vt 0.1446 0.2144 0.0000
vt 0.1403 0.2257 0.0000
vt 0.1390 0.2261 0.0000
vt 0.1246 0.2299 0.0000
# 68 texture coords

g Agile_01_HeadlightsGlass_HD001
usemtl wire_000100255
s 1
f -76/-68/-76 -75/-67/-75 -74/-66/-74 
f -74/-66/-74 -73/-65/-73 -76/-68/-76 
f -73/-65/-73 -72/-64/-72 -71/-63/-71 
f -71/-63/-71 -76/-68/-76 -73/-65/-73 
f -72/-64/-72 -70/-62/-70 -69/-61/-69 
f -69/-61/-69 -71/-63/-71 -72/-64/-72 
f -68/-60/-68 -67/-59/-67 -66/-58/-66 
f -65/-57/-65 -64/-56/-64 -63/-55/-63 
f -62/-54/-62 -61/-53/-61 -73/-65/-73 
f -73/-65/-73 -74/-66/-74 -62/-54/-62 
f -73/-65/-73 -61/-53/-61 -60/-52/-60 
f -60/-52/-60 -72/-64/-72 -73/-65/-73 
f -63/-55/-63 -59/-51/-59 -65/-57/-65 
f -66/-58/-66 -58/-50/-58 -75/-67/-75 
f -75/-67/-75 -76/-68/-76 -66/-58/-66 
f -63/-55/-63 -66/-58/-66 -76/-68/-76 
f -76/-68/-76 -71/-63/-71 -63/-55/-63 
f -63/-55/-63 -64/-56/-64 -68/-60/-68 
f -68/-60/-68 -66/-58/-66 -63/-55/-63 
f -57/-49/-57 -58/-50/-58 -66/-58/-66 
f -66/-58/-66 -67/-59/-67 -57/-49/-57 
f -59/-51/-59 -63/-55/-63 -71/-63/-71 
f -71/-63/-71 -56/-48/-56 -59/-51/-59 
f -55/-47/-55 -56/-48/-56 -71/-63/-71 
f -71/-63/-71 -69/-61/-69 -55/-47/-55 
f -60/-52/-60 -54/-46/-54 -70/-62/-70 
f -70/-62/-70 -72/-64/-72 -60/-52/-60 
s 262144
f -53/-45/-53 -52/-44/-52 -51/-43/-51 
f -51/-43/-51 -50/-42/-50 -53/-45/-53 
f -49/-41/-49 -48/-40/-48 -47/-39/-47 
f -47/-39/-47 -46/-38/-46 -49/-41/-49 
f -45/-37/-45 -49/-41/-49 -46/-38/-46 
f -46/-38/-46 -44/-36/-44 -45/-37/-45 
f -44/-36/-44 -43/-35/-43 -42/-34/-42 
f -42/-34/-42 -45/-37/-45 -44/-36/-44 
f -43/-35/-43 -41/-34/-41 -42/-34/-42 
f -40/-33/-40 -53/-45/-53 -39/-32/-39 
f -53/-45/-53 -47/-39/-47 -48/-40/-48 
f -48/-40/-48 -39/-32/-39 -53/-45/-53 
f -53/-45/-53 -40/-33/-40 -52/-44/-52 
f -38/-45/-38 -37/-42/-37 -36/-31/-36 
f -36/-31/-36 -35/-44/-35 -38/-45/-38 
f -34/-30/-34 -33/-38/-33 -32/-39/-32 
f -32/-39/-32 -31/-29/-31 -34/-30/-34 
f -30/-28/-30 -29/-36/-29 -33/-38/-33 
f -33/-38/-33 -34/-30/-34 -30/-28/-30 
f -29/-36/-29 -30/-28/-30 -28/-27/-28 
f -28/-27/-28 -27/-26/-27 -29/-36/-29 
f -28/-27/-28 -26/-34/-26 -27/-26/-27 
f -25/-25/-25 -24/-24/-24 -38/-45/-38 
f -38/-45/-38 -24/-24/-24 -31/-29/-31 
f -31/-29/-31 -32/-39/-32 -38/-45/-38 
f -38/-45/-38 -35/-44/-35 -25/-25/-25 
s 1
f -23/-23/-23 -22/-22/-22 -21/-21/-21 
f -21/-21/-21 -20/-20/-20 -23/-23/-23 
f -22/-22/-22 -23/-23/-23 -19/-19/-19 
f -19/-19/-19 -18/-18/-18 -22/-22/-22 
f -18/-18/-18 -19/-19/-19 -17/-17/-17 
f -17/-17/-17 -16/-16/-16 -18/-18/-18 
f -15/-15/-15 -14/-14/-14 -13/-13/-13 
f -12/-12/-12 -11/-11/-11 -10/-10/-10 
f -9/-9/-9 -21/-21/-21 -22/-22/-22 
f -22/-22/-22 -8/-8/-8 -9/-9/-9 
f -22/-22/-22 -18/-18/-18 -7/-7/-7 
f -7/-7/-7 -8/-8/-8 -22/-22/-22 
f -11/-11/-11 -12/-12/-12 -6/-6/-6 
f -14/-14/-14 -23/-23/-23 -20/-20/-20 
f -20/-20/-20 -5/-5/-5 -14/-14/-14 
f -11/-11/-11 -19/-19/-19 -23/-23/-23 
f -23/-23/-23 -14/-14/-14 -11/-11/-11 
f -11/-11/-11 -14/-14/-14 -15/-15/-15 
f -15/-15/-15 -10/-10/-10 -11/-11/-11 
f -4/-4/-4 -13/-13/-13 -14/-14/-14 
f -14/-14/-14 -5/-5/-5 -4/-4/-4 
f -6/-6/-6 -3/-3/-3 -19/-19/-19 
f -19/-19/-19 -11/-11/-11 -6/-6/-6 
f -2/-2/-2 -17/-17/-17 -19/-19/-19 
f -19/-19/-19 -3/-3/-3 -2/-2/-2 
f -7/-7/-7 -18/-18/-18 -16/-16/-16 
f -16/-16/-16 -1/-1/-1 -7/-7/-7 
# 80 faces

