# 3ds Max Wavefront OBJ Exporter v0.97b - (c)2007 guruware
# File Created: 12.04.2014 14:29:11

mtllib J251_WF_fence.mtl

#
# object J251_WF_fence
#

v  2.0441 21.0816 -28.0969
v  2.0441 21.0816 -30.5617
v  2.1940 18.4743 -31.4297
v  2.1940 18.4743 -28.9784
v  2.2987 15.9526 -29.8398
v  2.2987 15.9526 -32.2736
v  2.3672 13.5267 -32.8861
v  2.3672 13.5267 -30.4688
v  2.6223 11.0894 -30.8277
v  2.6223 11.0894 -33.2416
v  3.2869 8.5338 -33.3143
v  3.2869 8.5338 -30.8791
v  4.3713 6.1020 -30.8302
v  4.3713 6.1020 -33.2907
v  5.8859 4.0359 -33.3574
v  5.8859 4.0359 -30.8885
v  7.6292 2.2260 -30.9768
v  7.6292 2.2260 -33.4449
v  9.3998 0.5624 -33.4836
v  9.3998 0.5624 -31.0179
v  11.0587 -1.2220 -30.9371
v  11.0587 -1.2220 -33.4013
v  12.4671 -3.3943 -33.1256
v  12.4671 -3.3943 -30.6599
v  13.6498 -5.6991 -30.3504
v  13.6498 -5.6991 -32.8185
v  14.6319 -7.8810 -32.6418
v  14.6319 -7.8810 -30.1728
v  15.4004 -10.0388 -30.0891
v  15.4004 -10.0388 -32.5581
v  15.9421 -12.2709 -32.5302
v  15.9421 -12.2709 -30.0613
v  16.3551 -14.4621 -29.9762
v  16.3551 -14.4621 -32.4451
v  16.7374 -16.4969 -32.1899
v  16.7374 -16.4969 -29.7210
v  16.9831 -18.4012 -29.4847
v  16.9831 -18.4012 -31.9537
v  16.9859 -20.2007 -31.9254
v  16.9859 -20.2007 -29.4565
v  16.8500 -22.0051 -29.5605
v  16.8500 -22.0051 -32.0294
v  16.6794 -23.9242 -32.1899
v  16.6794 -23.9242 -29.7210
v  16.4261 -25.8992 -30.0104
v  16.4261 -25.8992 -32.4793
v  16.0417 -27.8715 -32.9702
v  16.0417 -27.8715 -30.5013
v  15.5805 -29.9248 -30.9967
v  15.5805 -29.9248 -33.4657
v  15.0968 -32.1430 -33.7689
v  15.0968 -32.1430 -31.2999
v  14.4249 -34.3924 -31.2348
v  14.4249 -34.3924 -33.7037
v  13.3993 -36.5395 -33.0939
v  13.3993 -36.5395 -30.6250
v  12.3725 -38.6499 -30.0218
v  12.3725 -38.6499 -32.4907
v  11.6971 -40.7891 -32.4452
v  11.6971 -40.7891 -29.9763
v  11.2860 -43.0062 -30.1512
v  11.2860 -43.0062 -32.6202
v  11.0519 -45.3503 -32.6785
v  11.0519 -45.3503 -30.2096
v  10.9063 -47.7579 -30.2096
v  10.9063 -47.7579 -32.6785
v  1.8399 23.7647 -27.4078
v  1.8399 23.7647 -29.8769
v  1.6216 26.5219 -29.4024
v  1.6216 26.5219 -26.9335
v  -18.4086 47.5614 -29.2810
v  -16.0416 47.4428 -29.1777
v  -16.0416 47.4428 -26.7088
v  -18.4086 47.5614 -26.8121
v  -13.6763 47.1816 -29.0614
v  -13.6763 47.1816 -26.5924
v  -11.4215 46.7143 -29.0316
v  -11.4215 46.7143 -26.5627
v  -9.2603 46.0269 -26.6516
v  -9.2603 46.0269 -29.1206
v  -7.1755 45.1054 -29.3606
v  -7.1755 45.1054 -26.8916
v  -5.1923 43.9640 -27.1482
v  -5.1923 43.9640 -29.6171
v  -3.3354 42.6169 -29.7558
v  -3.3354 42.6169 -27.2869
v  -1.7727 40.9584 -27.3467
v  -1.7727 40.9584 -29.8156
v  -0.6721 38.8827 -29.8355
v  -0.6721 38.8827 -27.3666
v  0.1116 36.6218 -27.2681
v  0.1116 36.6218 -29.7370
v  0.7236 34.4079 -29.4414
v  0.7236 34.4079 -26.9724
v  1.1631 32.0486 -26.7064
v  1.1631 32.0486 -29.1753
v  1.4292 29.3516 -29.1655
v  1.4292 29.3516 -26.6965
v  -20.6689 47.6009 -26.8027
v  -20.6689 47.6009 -29.2717
v  -22.8620 47.5239 -29.2537
v  -22.8620 47.5239 -26.7848
v  -25.0279 47.2930 -26.8623
v  -25.0279 47.2930 -29.3312
v  -27.1687 46.7963 -29.4895
v  -27.1687 46.7963 -27.0205
v  -29.2867 45.9222 -27.2448
v  -29.2867 45.9222 -29.7137
v  -31.2553 44.7599 -29.9965
v  -31.2553 44.7599 -27.5275
v  -32.9481 43.3985 -27.8612
v  -32.9481 43.3985 -30.3301
v  -34.4552 41.8270 -30.7410
v  -34.4552 41.8270 -28.2720
v  -35.8665 40.0347 -28.7865
v  -35.8665 40.0347 -31.2554
v  -37.0488 37.9922 -31.8146
v  -37.0488 37.9922 -29.3457
v  -37.8690 35.6706 -29.8910
v  -37.8690 35.6706 -32.3599
v  -38.5081 33.2093 -32.8982
v  -38.5081 33.2093 -30.4293
# 122 vertices

vn -0.9984 -0.0574 -0.0000
vn -0.9984 -0.0574 0.0000
vn -0.9991 -0.0415 0.0000
vn -0.9991 -0.0415 -0.0000
vn -0.9996 -0.0282 -0.0000
vn -0.9996 -0.0282 0.0000
vn -0.9946 -0.1041 0.0000
vn -0.9678 -0.2517 0.0000
vn -0.9133 -0.4073 0.0000
vn -0.8065 -0.5912 0.0000
vn -0.7202 -0.6937 0.0000
vn -0.6848 -0.7288 0.0000
vn -0.7324 -0.6809 0.0000
vn -0.7324 -0.6809 -0.0000
vn -0.8391 -0.5440 -0.0000
vn -0.8391 -0.5440 0.0000
vn -0.8897 -0.4566 0.0000
vn -0.9119 -0.4105 0.0000
vn -0.9420 -0.3355 0.0000
vn -0.9718 -0.2358 0.0000
vn -0.9827 -0.1852 0.0000
vn -0.9828 -0.1847 0.0000
vn -0.9918 -0.1279 0.0000
vn -0.9918 -0.1279 -0.0000
vn -1.0000 -0.0016 -0.0000
vn -1.0000 -0.0016 0.0000
vn -0.9972 0.0751 0.0000
vn -0.9961 0.0885 0.0000
vn -0.9919 0.1273 0.0000
vn -0.9815 0.1913 0.0000
vn -0.9757 0.2191 0.0000
vn -0.9770 0.2130 0.0000
vn -0.9582 0.2862 0.0000
vn -0.9023 0.4310 0.0000
vn -0.8992 0.4375 0.0000
vn -0.8992 0.4375 -0.0000
vn -0.9536 0.3011 -0.0000
vn -0.9536 0.3011 0.0000
vn -0.9832 0.1823 0.0000
vn -0.9951 0.0994 0.0000
vn -0.9982 0.0604 0.0000
vn -0.9971 -0.0759 -0.0000
vn -0.9971 -0.0759 0.0000
vn -0.9969 -0.0789 0.0000
vn -0.0500 -0.9987 -0.0000
vn -0.1098 -0.9940 -0.0000
vn -0.2029 -0.9792 -0.0000
vn -0.3031 -0.9530 -0.0000
vn -0.4043 -0.9146 -0.0000
vn -0.4043 -0.9146 0.0000
vn -0.4988 -0.8667 0.0000
vn -0.5872 -0.8094 0.0000
vn -0.7278 -0.6858 0.0000
vn -0.8835 -0.4684 0.0000
vn -0.9448 -0.3275 0.0000
vn -0.9448 -0.3275 -0.0000
vn -0.9638 -0.2664 -0.0000
vn -0.9638 -0.2664 0.0000
vn -0.9831 -0.1831 0.0000
vn -0.9952 -0.0982 0.0000
vn -0.9977 -0.0678 0.0000
vn -0.0175 -0.9998 -0.0000
vn 0.0351 -0.9994 -0.0000
vn 0.1060 -0.9944 -0.0000
vn 0.2260 -0.9741 -0.0000
vn 0.2260 -0.9741 0.0000
vn 0.3815 -0.9244 0.0000
vn 0.3815 -0.9244 -0.0000
vn 0.5084 -0.8611 -0.0000
vn 0.6267 -0.7793 -0.0000
vn 0.7217 -0.6922 -0.0000
vn 0.7857 -0.6186 -0.0000
vn 0.7857 -0.6186 0.0000
vn 0.8654 -0.5010 0.0000
vn 0.9429 -0.3331 0.0000
vn 0.9679 -0.2513 0.0000
# 76 vertex normals

vt 0.1379 0.2498 0.0000
vt 0.1739 0.1516 0.0000
vt 0.2901 0.1509 0.0000
vt 0.2543 0.2484 0.0000
vt 0.3708 0.2470 0.0000
vt 0.4063 0.1502 0.0000
vt 0.5894 0.5162 0.0000
vt 0.6013 0.4138 0.0000
vt 0.7038 0.4045 0.0000
vt 0.6920 0.5063 0.0000
vt 0.7946 0.4963 0.0000
vt 0.8063 0.3952 0.0000
vt 0.0039 0.3544 0.0000
vt 0.0157 0.2533 0.0000
vt 0.1254 0.2690 0.0000
vt 0.1134 0.3715 0.0000
vt 0.2230 0.3886 0.0000
vt 0.2351 0.2847 0.0000
vt 0.3919 0.7571 0.0000
vt 0.4040 0.6532 0.0000
vt 0.4838 0.6577 0.0000
vt 0.4717 0.7616 0.0000
vt 0.5515 0.7661 0.0000
vt 0.5636 0.6622 0.0000
vt 0.3810 0.5163 0.0000
vt 0.3729 0.4120 0.0000
vt 0.4739 0.4036 0.0000
vt 0.4819 0.5078 0.0000
vt 0.5828 0.4993 0.0000
vt 0.5748 0.3952 0.0000
vt 0.0119 0.6313 0.0000
vt 0.0039 0.5273 0.0000
vt 0.1121 0.5348 0.0000
vt 0.1201 0.6389 0.0000
vt 0.2283 0.6466 0.0000
vt 0.2203 0.5423 0.0000
vt 0.5807 0.8824 0.0000
vt 0.5727 0.7781 0.0000
vt 0.6605 0.7762 0.0000
vt 0.6685 0.8805 0.0000
vt 0.7562 0.8785 0.0000
vt 0.7482 0.7742 0.0000
vt 0.7894 0.6434 0.0000
vt 0.7814 0.5391 0.0000
vt 0.8587 0.5332 0.0000
vt 0.8667 0.6375 0.0000
vt 0.9440 0.6316 0.0000
vt 0.9360 0.5273 0.0000
vt 0.2310 0.4995 0.0000
vt 0.2230 0.3952 0.0000
vt 0.2907 0.4045 0.0000
vt 0.2987 0.5088 0.0000
vt 0.3663 0.5181 0.0000
vt 0.3583 0.4138 0.0000
vt 0.9155 0.7742 0.0000
vt 0.9114 0.8787 0.0000
vt 0.8371 0.8790 0.0000
vt 0.8412 0.7745 0.0000
vt 0.7669 0.7748 0.0000
vt 0.7628 0.8793 0.0000
vt 0.3853 0.6532 0.0000
vt 0.3812 0.7577 0.0000
vt 0.2968 0.7624 0.0000
vt 0.3009 0.6579 0.0000
vt 0.2166 0.6626 0.0000
vt 0.2125 0.7671 0.0000
vt 0.8017 0.0968 0.0000
vt 0.7976 0.2014 0.0000
vt 0.7121 0.2231 0.0000
vt 0.7162 0.1186 0.0000
vt 0.6307 0.1403 0.0000
vt 0.6266 0.2448 0.0000
vt 0.2059 0.6532 0.0000
vt 0.2018 0.7577 0.0000
vt 0.1028 0.7626 0.0000
vt 0.1069 0.6581 0.0000
vt 0.0080 0.6630 0.0000
vt 0.0039 0.7675 0.0000
vt 0.3742 0.0413 0.0000
vt 0.4104 0.1395 0.0000
vt 0.3111 0.1363 0.0000
vt 0.2749 0.0382 0.0000
vt 0.1756 0.0350 0.0000
vt 0.2118 0.1331 0.0000
vt 0.4155 0.5273 0.0000
vt 0.4114 0.6318 0.0000
vt 0.3231 0.6382 0.0000
vt 0.3272 0.5337 0.0000
vt 0.2390 0.5401 0.0000
vt 0.2349 0.6447 0.0000
vt 0.3729 0.7800 0.0000
vt 0.3688 0.8845 0.0000
vt 0.2943 0.8816 0.0000
vt 0.2984 0.7771 0.0000
vt 0.2240 0.7742 0.0000
vt 0.2199 0.8787 0.0000
vt 0.5306 0.2533 0.0000
vt 0.5185 0.3573 0.0000
vt 0.3801 0.3706 0.0000
vt 0.3922 0.2667 0.0000
vt 0.2538 0.2800 0.0000
vt 0.2417 0.3839 0.0000
vt 0.2133 0.8845 0.0000
vt 0.1105 0.8816 0.0000
vt 0.1066 0.7771 0.0000
vt 0.2094 0.7800 0.0000
vt 0.0078 0.8787 0.0000
vt 0.0039 0.7742 0.0000
vt 0.7564 0.6532 0.0000
vt 0.7603 0.7578 0.0000
vt 0.6672 0.7618 0.0000
vt 0.6633 0.6573 0.0000
vt 0.5702 0.6613 0.0000
vt 0.5741 0.7659 0.0000
vt 0.9849 0.1160 0.0000
vt 0.9888 0.2205 0.0000
vt 0.9026 0.2371 0.0000
vt 0.8987 0.1326 0.0000
vt 0.8126 0.1492 0.0000
vt 0.8165 0.2537 0.0000
vt 0.7709 0.5273 0.0000
vt 0.7748 0.6318 0.0000
vt 0.6990 0.6380 0.0000
vt 0.6951 0.5335 0.0000
vt 0.6193 0.5397 0.0000
vt 0.6232 0.6442 0.0000
vt 0.6806 0.3572 0.0000
vt 0.6926 0.2533 0.0000
vt 0.7888 0.2645 0.0000
vt 0.7767 0.3684 0.0000
vt 0.8728 0.3796 0.0000
vt 0.8849 0.2757 0.0000
vt 0.4210 0.1944 0.0000
vt 0.4331 0.0905 0.0000
vt 0.5233 0.1178 0.0000
vt 0.5112 0.2217 0.0000
vt 0.6015 0.2490 0.0000
vt 0.6136 0.1451 0.0000
vt 0.0039 0.4992 0.0000
vt 0.0160 0.3952 0.0000
vt 0.1162 0.4060 0.0000
vt 0.1041 0.5099 0.0000
vt 0.2043 0.5206 0.0000
vt 0.2164 0.4167 0.0000
vt 0.4260 0.6443 0.0000
vt 0.4221 0.5398 0.0000
vt 0.5154 0.5335 0.0000
vt 0.5193 0.6381 0.0000
vt 0.6126 0.6318 0.0000
vt 0.6087 0.5273 0.0000
vt 0.3834 0.8787 0.0000
vt 0.3795 0.7742 0.0000
vt 0.4708 0.7761 0.0000
vt 0.4747 0.8806 0.0000
vt 0.5661 0.8825 0.0000
vt 0.5622 0.7780 0.0000
vt 0.8169 0.4998 0.0000
vt 0.8129 0.3952 0.0000
vt 0.9025 0.4028 0.0000
vt 0.9065 0.5073 0.0000
vt 0.9961 0.5149 0.0000
vt 0.9921 0.4104 0.0000
vt 0.5411 0.3579 0.0000
vt 0.5372 0.2533 0.0000
vt 0.6036 0.2661 0.0000
vt 0.6075 0.3706 0.0000
vt 0.6739 0.3834 0.0000
vt 0.6700 0.2788 0.0000
vt 0.7907 0.7551 0.0000
vt 0.7669 0.6532 0.0000
vt 0.8509 0.6582 0.0000
vt 0.8747 0.7601 0.0000
vt 0.9587 0.7651 0.0000
vt 0.9348 0.6632 0.0000
vt 0.0277 0.9961 0.0000
vt 0.0039 0.8942 0.0000
vt 0.1106 0.8927 0.0000
vt 0.1345 0.9946 0.0000
vt 0.2412 0.9930 0.0000
vt 0.2174 0.8912 0.0000
# 180 texture coords

g J251_WF_fence
usemtl wire_108008136
s off
f 1/1/1 2/2/1 3/3/1 
f 3/3/2 4/4/2 1/1/2 
f 5/5/3 4/4/3 3/3/3 
f 3/3/4 6/6/4 5/5/4 
f 5/7/5 6/8/5 7/9/5 
f 7/9/6 8/10/6 5/7/6 
f 9/11/7 8/10/7 7/9/7 
f 7/9/7 10/12/7 9/11/7 
f 9/13/8 10/14/8 11/15/8 
f 11/15/8 12/16/8 9/13/8 
f 13/17/9 12/16/9 11/15/9 
f 11/15/9 14/18/9 13/17/9 
f 13/19/10 14/20/10 15/21/10 
f 15/21/10 16/22/10 13/19/10 
f 17/23/11 16/22/11 15/21/11 
f 15/21/11 18/24/11 17/23/11 
f 17/25/12 18/26/12 19/27/12 
f 19/27/12 20/28/12 17/25/12 
f 21/29/13 20/28/13 19/27/13 
f 19/27/14 22/30/14 21/29/14 
f 21/31/15 22/32/15 23/33/15 
f 23/33/16 24/34/16 21/31/16 
f 25/35/17 24/34/17 23/33/17 
f 23/33/17 26/36/17 25/35/17 
f 25/37/18 26/38/18 27/39/18 
f 27/39/18 28/40/18 25/37/18 
f 29/41/19 28/40/19 27/39/19 
f 27/39/19 30/42/19 29/41/19 
f 29/43/20 30/44/20 31/45/20 
f 31/45/20 32/46/20 29/43/20 
f 33/47/21 32/46/21 31/45/21 
f 31/45/21 34/48/21 33/47/21 
f 33/49/22 34/50/22 35/51/22 
f 35/51/22 36/52/22 33/49/22 
f 37/53/23 36/52/23 35/51/23 
f 35/51/24 38/54/24 37/53/24 
f 37/55/25 38/56/25 39/57/25 
f 39/57/26 40/58/26 37/55/26 
f 41/59/27 40/58/27 39/57/27 
f 39/57/27 42/60/27 41/59/27 
f 41/61/28 42/62/28 43/63/28 
f 43/63/28 44/64/28 41/61/28 
f 45/65/29 44/64/29 43/63/29 
f 43/63/29 46/66/29 45/65/29 
f 45/67/30 46/68/30 47/69/30 
f 47/69/30 48/70/30 45/67/30 
f 49/71/31 48/70/31 47/69/31 
f 47/69/31 50/72/31 49/71/31 
f 49/73/32 50/74/32 51/75/32 
f 51/75/32 52/76/32 49/73/32 
f 53/77/33 52/76/33 51/75/33 
f 51/75/33 54/78/33 53/77/33 
f 53/79/34 54/80/34 55/81/34 
f 55/81/34 56/82/34 53/79/34 
f 57/83/35 56/82/35 55/81/35 
f 55/81/36 58/84/36 57/83/36 
f 57/85/37 58/86/37 59/87/37 
f 59/87/38 60/88/38 57/85/38 
f 61/89/39 60/88/39 59/87/39 
f 59/87/39 62/90/39 61/89/39 
f 61/91/40 62/92/40 63/93/40 
f 63/93/40 64/94/40 61/91/40 
f 65/95/41 64/94/41 63/93/41 
f 63/93/41 66/96/41 65/95/41 
f 2/97/42 1/98/42 67/99/42 
f 67/99/43 68/100/43 2/97/43 
f 69/101/44 68/100/44 67/99/44 
f 67/99/44 70/102/44 69/101/44 
f 71/103/45 72/104/45 73/105/45 
f 73/105/45 74/106/45 71/103/45 
f 75/107/46 76/108/46 73/105/46 
f 73/105/46 72/104/46 75/107/46 
f 76/109/47 75/110/47 77/111/47 
f 77/111/47 78/112/47 76/109/47 
f 79/113/48 78/112/48 77/111/48 
f 77/111/48 80/114/48 79/113/48 
f 79/115/49 80/116/49 81/117/49 
f 81/117/50 82/118/50 79/115/50 
f 83/119/51 82/118/51 81/117/51 
f 81/117/51 84/120/51 83/119/51 
f 83/121/52 84/122/52 85/123/52 
f 85/123/52 86/124/52 83/121/52 
f 87/125/53 86/124/53 85/123/53 
f 85/123/53 88/126/53 87/125/53 
f 87/127/54 88/128/54 89/129/54 
f 89/129/54 90/130/54 87/127/54 
f 91/131/55 90/130/55 89/129/55 
f 89/129/56 92/132/56 91/131/56 
f 91/133/57 92/134/57 93/135/57 
f 93/135/58 94/136/58 91/133/58 
f 95/137/59 94/136/59 93/135/59 
f 93/135/59 96/138/59 95/137/59 
f 95/139/60 96/140/60 97/141/60 
f 97/141/60 98/142/60 95/139/60 
f 70/143/61 98/142/61 97/141/61 
f 97/141/61 69/144/61 70/143/61 
f 71/145/62 74/146/62 99/147/62 
f 99/147/62 100/148/62 71/145/62 
f 101/149/63 100/148/63 99/147/63 
f 99/147/63 102/150/63 101/149/63 
f 101/151/64 102/152/64 103/153/64 
f 103/153/64 104/154/64 101/151/64 
f 105/155/65 104/154/65 103/153/65 
f 103/153/66 106/156/66 105/155/66 
f 105/157/67 106/158/67 107/159/67 
f 107/159/68 108/160/68 105/157/68 
f 109/161/69 108/160/69 107/159/69 
f 107/159/69 110/162/69 109/161/69 
f 109/163/70 110/164/70 111/165/70 
f 111/165/70 112/166/70 109/163/70 
f 113/167/71 112/166/71 111/165/71 
f 111/165/71 114/168/71 113/167/71 
f 113/169/72 114/170/72 115/171/72 
f 115/171/73 116/172/73 113/169/73 
f 117/173/74 116/172/74 115/171/74 
f 115/171/74 118/174/74 117/173/74 
f 117/175/75 118/176/75 119/177/75 
f 119/177/75 120/178/75 117/175/75 
f 121/179/76 120/178/76 119/177/76 
f 119/177/76 122/180/76 121/179/76 
# 120 faces

